# xmcd
#
# Track frame offsets: 
#        150
#        18237
#        33004
#        48284
#        64919
#        80697
#        97657
#        113777
#        130439
#        146542
#        161829
#        177427
#
# Disc length: 2568 seconds
#
# Revision: 0
# Processed by: cddbd v1.5.2PL0 Copyright (c) Steve Scherf et al.
# Submitted via: ExactAudioCopy v0.99pb5
#
DISCID=990a060c
DTITLE=Adrienne Pierce - Oh Deer
DYEAR=2010
DGENRE=Pop-Folk
TTITLE0=Amargosa Hotel
TTITLE1=Black Sand
TTITLE2=Museum
TTITLE3=Monsters
TTITLE4=Three Hours Ago
TTITLE5=Arc de Triomphe
TTITLE6=Nightswimming
TTITLE7=Guilty Of Everything
TTITLE8=Come Over To My House
TTITLE9=Winner Takes All
TTITLE10=Let's Pretend
TTITLE11=Telescope
EXTD=
EXTT0=
EXTT1=
EXTT2=
EXTT3=
EXTT4=
EXTT5=
EXTT6=
EXTT7=
EXTT8=
EXTT9=
EXTT10=
EXTT11=
PLAYORDER=
